<?xml version="1.0" encoding="UTF-8" standalone="no"?>
<!DOCTYPE svg PUBLIC "-//W3C//DTD SVG 1.1//EN" "http://www.w3.org/Graphics/SVG/1.1/DTD/svg11.dtd">
<svg width="100%" height="100%" viewBox="0 0 248 488" version="1.1" xmlns="http://www.w3.org/2000/svg" xmlns:xlink="http://www.w3.org/1999/xlink" xml:space="preserve" xmlns:serif="http://www.serif.com/" style="fill-rule:evenodd;clip-rule:evenodd;stroke-linejoin:round;stroke-miterlimit:2;">
    <g transform="matrix(0.1,0,0,-0.1,0,488)">
        <path d="M17,4863C13,4860 10,3772 10,2445C10,583 13,31 22,22C31,13 318,10 1252,10L2470,10L2470,4870L1247,4870C574,4870 20,4867 17,4863ZM2418,4818C2435,4801 2435,79 2418,62C2401,45 79,45 62,62C45,79 45,4801 62,4818C79,4835 2401,4835 2418,4818Z" style="fill-rule:nonzero;"/>
        <path d="M1205,4230C1194,4226 1040,4076 863,3898C545,3580 540,3574 540,3534C540,3482 563,3460 616,3460C654,3460 664,3468 948,3753L1241,4046L1439,3846C1547,3735 1674,3606 1721,3557C1789,3487 1812,3468 1842,3464C1872,3459 1883,3462 1904,3483C1921,3500 1930,3520 1930,3540C1930,3568 1900,3603 1691,3818C1270,4253 1266,4256 1205,4230Z" style="fill-rule:nonzero;"/>
        <path d="M1165,2591C1062,2564 989,2479 974,2372C960,2266 1008,2165 1097,2113C1139,2088 1155,2085 1230,2085C1325,2085 1365,2099 1420,2153C1470,2201 1490,2253 1490,2338C1490,2378 1484,2425 1476,2444C1456,2492 1405,2546 1357,2569C1309,2592 1211,2603 1165,2591ZM1276,2434C1359,2394 1360,2286 1277,2244C1185,2196 1089,2309 1147,2398C1160,2419 1210,2449 1233,2450C1238,2450 1257,2443 1276,2434Z" style="fill-rule:nonzero;"/>
        <path d="M821,1054C777,998 782,992 1058,708C1192,571 1219,555 1268,585C1283,595 1377,685 1478,786C1652,960 1660,970 1660,1008C1660,1057 1636,1080 1584,1080C1547,1080 1537,1072 1388,923L1230,765L1072,923C926,1069 912,1080 878,1080C850,1080 836,1074 821,1054Z" style="fill-rule:nonzero;"/>
        <g transform="matrix(7.53488,0,0,-7.53488,179.681,4801.24)">
            <circle cx="140.721" cy="139.051" r="94.608" style="fill:rgb(183,101,101);fill-opacity:0.47;"/>
        </g>
        <g transform="matrix(5.33721,0,0,-5.33721,479.157,3082.6)">
            <circle cx="140.721" cy="139.051" r="94.608" style="fill:rgb(183,101,101);fill-opacity:0.47;"/>
        </g>
    </g>
</svg>
