<?xml version="1.0" encoding="UTF-8" standalone="no"?>
<!DOCTYPE svg PUBLIC "-//W3C//DTD SVG 1.1//EN" "http://www.w3.org/Graphics/SVG/1.1/DTD/svg11.dtd">
<svg width="100%" height="100%" viewBox="0 0 500 500" version="1.1" xmlns="http://www.w3.org/2000/svg" xmlns:xlink="http://www.w3.org/1999/xlink" xml:space="preserve" xmlns:serif="http://www.serif.com/" style="fill-rule:evenodd;clip-rule:evenodd;stroke-linejoin:round;stroke-miterlimit:2;">
    <g transform="matrix(0.500288,0,0,0.500288,248.013,249.279)">
        <g id="icon.svg" transform="matrix(1,0,0,1,-480,-480)">
            <g>
                <g>
                    <path d="M527.937,8.057L527.804,8.047C526.57,7.961 525.316,7.989 524.053,8.139L419.758,20.502L420.436,20.457C232.615,31.749 70.355,198.892 35.523,418.815C-4.239,669.858 134.837,901.797 348.307,935.607L350.433,935.937C361.774,937.659 373.149,938.792 384.535,939.34L385.786,939.395L453.051,947.963L452.242,947.798C457.435,948.878 462.66,949.835 467.918,950.668C683.801,984.86 890.539,800.968 931.557,541.991C972.575,283.015 832.781,44.237 616.898,10.044C587.657,5.413 558.208,4.742 528.959,7.944L527.937,8.057ZM610.64,49.552C802.78,79.984 929.855,297.038 892.049,535.734C854.244,774.43 666.315,941.592 474.175,911.16C469.55,910.428 464.953,909.586 460.387,908.637C459.876,908.53 459.36,908.444 458.842,908.378L390.029,899.613C389.467,899.542 388.902,899.494 388.335,899.47C377.062,899.001 365.796,897.879 354.564,896.1C164.618,866.015 38.503,655.692 75.03,425.072C106.756,224.764 251.943,73.532 417.804,60.73L423.222,60.358C423.479,60.337 423.735,60.312 423.991,60.281L525.029,48.303L525.303,48.323C526.526,48.399 527.769,48.363 529.019,48.208C556.167,44.834 583.497,45.253 610.64,49.552Z" style="fill-rule:nonzero;"/>
                    <path d="M176.996,426.283C138.486,675.267 267.528,903.886 466.649,936.182C563.905,951.957 666.58,917.239 751.086,842.86C836.076,768.055 895.45,659.645 914.042,539.438C932.603,419.431 908.555,300.428 849.609,205.313C791.549,111.627 704.13,48.712 606.507,32.879C407.317,0.571 215.512,177.251 176.996,426.283ZM603.305,52.621C694.94,67.483 777.474,126.882 832.609,215.848C889.036,306.9 912.11,421.08 894.277,536.381C876.401,651.959 819.344,756.138 737.872,827.847C657.631,898.472 560.844,931.199 469.851,916.44C282.705,886.086 159.797,668.333 196.761,429.34C233.717,190.395 416.227,22.278 603.305,52.621Z" style="fill-rule:nonzero;"/>
                </g>
            </g>
        </g>
        <g id="zigbee_icon_136005.svg" transform="matrix(19.9329,0,-2.2924,21.8108,65.195,10.405)">
            <g transform="matrix(1,0,0,1,-12,-12)">
                <path d="M4.06,6.15C3.97,6.17 3.88,6.22 3.8,6.28C2.66,7.9 2,9.87 2,12C2,17.486 6.514,22 12,22C15,22 17.68,20.68 19.5,18.6L17,18.85C14.25,19.15 11.45,19.19 8.66,18.96C7.95,18.94 7.24,18.76 6.59,18.45C5.73,18.06 5.15,17.23 5.07,16.29C5.06,16.13 5.12,16 5.23,15.87L7.42,13.6L15.03,5.7L15.03,5.6L10.84,5.6C8.57,5.64 6.31,5.82 4.06,6.15M20.17,17.5C20.26,17.47 20.35,17.44 20.43,17.39C21.42,15.83 22,14 22,12C22,6.514 17.486,2 12,2C9.22,2 6.7,3.13 4.89,4.97L5.17,4.97C8.28,4.57 11.43,4.47 14.56,4.65C15.5,4.64 16.45,4.82 17.33,5.17C18.25,5.53 18.89,6.38 19,7.37C19,7.53 18.93,7.7 18.82,7.82L9.71,17.19L9,17.95L9,18.06L13.14,18.06C15.5,18 17.84,17.81 20.17,17.5Z" style="fill-rule:nonzero;"/>
            </g>
        </g>
    </g>
</svg>
